<svg width="150" height="197" viewBox="0 0 150 197" fill="none" xmlns="http://www.w3.org/2000/svg">
    <path d="M37.1203 182.256C34.2829 182.256 32.0109 181.723 30.3043 180.656C28.5976 179.568 27.7443 177.915 27.7443 175.696C27.7443 174.523 27.9469 173.627 28.3523 173.008C28.7576 172.389 29.3549 172.08 30.1443 172.08C30.7203 172.08 31.1896 172.229 31.5523 172.528C31.9149 172.827 32.0963 173.211 32.0963 173.68C32.0963 174.107 32.0643 174.48 32.0003 174.8C32.0003 174.885 31.9789 175.035 31.9363 175.248C31.9149 175.461 31.9043 175.685 31.9043 175.92C31.9043 176.88 32.3843 177.595 33.3443 178.064C34.3256 178.533 35.6909 178.768 37.4403 178.768C39.2536 178.768 40.6723 178.448 41.6963 177.808C42.7203 177.147 43.2323 176.229 43.2323 175.056C43.2323 174.331 42.9976 173.712 42.5283 173.2C42.0589 172.667 41.4723 172.229 40.7683 171.888C40.0643 171.525 39.0723 171.088 37.7923 170.576C36.1496 169.936 34.8056 169.328 33.7603 168.752C32.7363 168.176 31.8509 167.397 31.1043 166.416C30.3789 165.413 30.0163 164.176 30.0163 162.704C30.0163 161.168 30.4216 159.803 31.2323 158.608C32.0643 157.413 33.2483 156.485 34.7843 155.824C36.3416 155.163 38.1656 154.832 40.2563 154.832C41.8136 154.832 43.2429 155.067 44.5443 155.536C45.8456 155.984 46.8803 156.677 47.6483 157.616C48.4376 158.555 48.8323 159.707 48.8323 161.072C48.8323 162.416 48.6296 163.429 48.2243 164.112C47.8189 164.795 47.2216 165.136 46.4323 165.136C45.8776 165.136 45.4083 164.965 45.0243 164.624C44.6616 164.283 44.4803 163.877 44.4803 163.408C44.4803 163.003 44.5123 162.629 44.5763 162.288C44.6403 161.648 44.6723 161.243 44.6723 161.072C44.6723 160.176 44.2349 159.493 43.3603 159.024C42.4856 158.555 41.3976 158.32 40.0963 158.32C38.2616 158.32 36.8536 158.661 35.8723 159.344C34.9123 160.005 34.4323 160.944 34.4323 162.16C34.4323 162.971 34.6776 163.664 35.1683 164.24C35.6803 164.816 36.3096 165.296 37.0563 165.68C37.8029 166.064 38.8483 166.523 40.1923 167.056C41.8136 167.717 43.1149 168.315 44.0963 168.848C45.0776 169.381 45.9096 170.107 46.5923 171.024C47.2963 171.941 47.6483 173.072 47.6483 174.416C47.6483 176.933 46.6883 178.875 44.7683 180.24C42.8696 181.584 40.3203 182.256 37.1203 182.256ZM54.4155 164.976C53.5195 164.976 52.8475 164.773 52.3995 164.368C51.9515 163.941 51.7275 163.355 51.7275 162.608C51.7275 161.861 52.0155 161.243 52.5915 160.752C53.1888 160.24 53.9248 159.984 54.7995 159.984C55.5888 159.984 56.2288 160.176 56.7195 160.56C57.2102 160.944 57.4555 161.488 57.4555 162.192C57.4555 163.045 57.1782 163.728 56.6235 164.24C56.0688 164.731 55.3328 164.976 54.4155 164.976ZM54.1595 182.16C52.7728 182.16 51.7595 181.669 51.1195 180.688C50.5008 179.707 50.1915 178.405 50.1915 176.784C50.1915 175.824 50.3088 174.597 50.5435 173.104C50.7995 171.589 51.1195 170.181 51.5035 168.88C51.6955 168.197 51.9515 167.728 52.2715 167.472C52.5915 167.216 53.1035 167.088 53.8075 167.088C54.8955 167.088 55.4395 167.451 55.4395 168.176C55.4395 168.709 55.2368 169.947 54.8315 171.888C54.3195 174.235 54.0635 175.824 54.0635 176.656C54.0635 177.296 54.1488 177.787 54.3195 178.128C54.4902 178.469 54.7782 178.64 55.1835 178.64C55.5675 178.64 56.0475 178.373 56.6235 177.84C57.1995 177.307 57.9675 176.464 58.9275 175.312C59.1835 175.013 59.4715 174.864 59.7915 174.864C60.0688 174.864 60.2822 174.992 60.4315 175.248C60.6022 175.504 60.6875 175.856 60.6875 176.304C60.6875 177.157 60.4848 177.819 60.0795 178.288C57.9675 180.869 55.9942 182.16 54.1595 182.16ZM60.3705 182.16C59.5598 182.16 58.9838 181.733 58.6425 180.88C58.3225 180.027 58.1625 178.661 58.1625 176.784C58.1625 174.011 58.5572 171.376 59.3465 168.88C59.5385 168.261 59.8478 167.813 60.2745 167.536C60.7225 167.237 61.3412 167.088 62.1305 167.088C62.5572 167.088 62.8558 167.141 63.0265 167.248C63.1972 167.355 63.2825 167.557 63.2825 167.856C63.2825 168.197 63.1225 168.965 62.8025 170.16C62.5892 171.013 62.4185 171.76 62.2905 172.4C62.1625 173.04 62.0558 173.829 61.9705 174.768C62.6745 172.933 63.4638 171.44 64.3385 170.288C65.2132 169.136 66.0665 168.315 66.8985 167.824C67.7518 167.333 68.5305 167.088 69.2345 167.088C70.6212 167.088 71.3145 167.781 71.3145 169.168C71.3145 170 71.0798 171.504 70.6105 173.68C70.2052 175.536 70.0025 176.763 70.0025 177.36C70.0025 178.213 70.3118 178.64 70.9305 178.64C71.3572 178.64 71.8585 178.384 72.4345 177.872C73.0318 177.339 73.8212 176.485 74.8025 175.312C75.0585 175.013 75.3465 174.864 75.6665 174.864C75.9438 174.864 76.1572 174.992 76.3065 175.248C76.4772 175.504 76.5625 175.856 76.5625 176.304C76.5625 177.157 76.3598 177.819 75.9545 178.288C75.0372 179.419 74.0452 180.347 72.9785 181.072C71.9332 181.797 70.7385 182.16 69.3945 182.16C68.3065 182.16 67.4852 181.851 66.9305 181.232C66.3758 180.592 66.0985 179.675 66.0985 178.48C66.0985 177.883 66.2478 176.816 66.5465 175.28C66.8238 173.936 66.9625 173.008 66.9625 172.496C66.9625 172.155 66.8452 171.984 66.6105 171.984C66.3332 171.984 65.9385 172.347 65.4265 173.072C64.9358 173.776 64.4238 174.715 63.8905 175.888C63.3785 177.061 62.9625 178.299 62.6425 179.6C62.4078 180.603 62.1305 181.285 61.8105 181.648C61.5118 181.989 61.0318 182.16 60.3705 182.16ZM90.3575 174.928C90.6348 174.928 90.8482 175.067 90.9975 175.344C91.1682 175.6 91.2535 175.931 91.2535 176.336C91.2535 176.827 91.1788 177.211 91.0295 177.488C90.8802 177.765 90.6455 178.011 90.3255 178.224C88.4908 179.461 87.1468 180.379 86.2935 180.976L84.2455 182.352C83.4348 186.768 82.3682 190.235 81.0455 192.752C79.7442 195.291 78.0802 196.56 76.0535 196.56C74.9655 196.56 74.0802 196.219 73.3975 195.536C72.7148 194.875 72.3735 194 72.3735 192.912C72.3735 191.397 72.9708 189.765 74.1655 188.016C75.3602 186.288 77.6002 184.155 80.8855 181.616L81.0775 180.368C80.7148 180.944 80.2348 181.392 79.6375 181.712C79.0615 182.011 78.4855 182.16 77.9095 182.16C76.5868 182.16 75.5308 181.68 74.7415 180.72C73.9522 179.76 73.5575 178.501 73.5575 176.944C73.5575 175.237 73.9522 173.627 74.7415 172.112C75.5308 170.576 76.5762 169.349 77.8775 168.432C79.2002 167.493 80.5975 167.024 82.0695 167.024C82.5388 167.024 82.8482 167.12 82.9975 167.312C83.1682 167.483 83.3068 167.803 83.4135 168.272C83.8188 168.187 84.2882 168.144 84.8215 168.144C85.3548 168.144 85.7282 168.229 85.9415 168.4C86.1762 168.549 86.2935 168.859 86.2935 169.328C86.2935 169.584 86.2828 169.787 86.2615 169.936C86.1762 170.597 85.9095 172.272 85.4615 174.96C85.3762 175.472 85.2802 176.037 85.1735 176.656C85.0882 177.253 84.9922 177.893 84.8855 178.576C86.5282 177.296 88.1068 176.165 89.6215 175.184C89.8988 175.013 90.1442 174.928 90.3575 174.928ZM79.0615 178.928C79.5522 178.928 80.0215 178.629 80.4695 178.032C80.9175 177.435 81.2375 176.581 81.4295 175.472L82.4535 170C81.5788 170.021 80.7682 170.363 80.0215 171.024C79.2748 171.664 78.6775 172.517 78.2295 173.584C77.7815 174.651 77.5575 175.781 77.5575 176.976C77.5575 177.637 77.6855 178.128 77.9415 178.448C78.2188 178.768 78.5922 178.928 79.0615 178.928ZM76.4055 193.456C76.9388 193.456 77.5362 192.816 78.1975 191.536C78.8802 190.256 79.5308 188.219 80.1495 185.424C78.5068 186.832 77.3228 188.101 76.5975 189.232C75.8722 190.363 75.5095 191.355 75.5095 192.208C75.5095 192.571 75.5735 192.869 75.7015 193.104C75.8508 193.339 76.0855 193.456 76.4055 193.456ZM101.414 174.864C101.691 174.864 101.905 174.992 102.054 175.248C102.225 175.504 102.31 175.856 102.31 176.304C102.31 177.157 102.107 177.819 101.702 178.288C100.785 179.419 99.782 180.347 98.694 181.072C97.6273 181.797 96.4113 182.16 95.046 182.16C93.1687 182.16 91.7713 181.307 90.854 179.6C89.958 177.893 89.51 175.685 89.51 172.976C89.51 170.373 89.8407 167.408 90.502 164.08C91.1847 160.752 92.1767 157.893 93.478 155.504C94.8007 153.115 96.3687 151.92 98.182 151.92C99.206 151.92 100.006 152.4 100.582 153.36C101.179 154.299 101.478 155.653 101.478 157.424C101.478 159.963 100.774 162.907 99.366 166.256C97.958 169.605 96.0487 172.923 93.638 176.208C93.7873 177.083 94.0327 177.712 94.374 178.096C94.7153 178.459 95.1633 178.64 95.718 178.64C96.5927 178.64 97.3607 178.395 98.022 177.904C98.6833 177.392 99.526 176.528 100.55 175.312C100.806 175.013 101.094 174.864 101.414 174.864ZM97.478 155.088C96.9873 155.088 96.4327 155.973 95.814 157.744C95.1953 159.515 94.6513 161.712 94.182 164.336C93.7127 166.96 93.4567 169.477 93.414 171.888C94.9287 169.392 96.134 166.896 97.03 164.4C97.926 161.883 98.374 159.589 98.374 157.52C98.374 155.899 98.0753 155.088 97.478 155.088ZM113.996 174.864C114.273 174.864 114.486 174.992 114.635 175.248C114.806 175.504 114.892 175.856 114.892 176.304C114.892 177.157 114.689 177.819 114.284 178.288C113.494 179.248 112.374 180.133 110.924 180.944C109.494 181.755 107.958 182.16 106.316 182.16C104.076 182.16 102.337 181.552 101.1 180.336C99.8622 179.12 99.2435 177.456 99.2435 175.344C99.2435 173.872 99.5528 172.507 100.172 171.248C100.79 169.968 101.644 168.955 102.732 168.208C103.841 167.461 105.089 167.088 106.476 167.088C107.713 167.088 108.705 167.461 109.452 168.208C110.198 168.933 110.572 169.925 110.572 171.184C110.572 172.656 110.038 173.925 108.972 174.992C107.926 176.037 106.145 176.869 103.628 177.488C104.161 178.469 105.174 178.96 106.668 178.96C107.628 178.96 108.716 178.629 109.932 177.968C111.169 177.285 112.236 176.4 113.132 175.312C113.388 175.013 113.676 174.864 113.996 174.864ZM105.932 170.224C105.142 170.224 104.47 170.683 103.916 171.6C103.382 172.517 103.116 173.627 103.116 174.928V174.992C104.374 174.693 105.366 174.245 106.092 173.648C106.817 173.051 107.18 172.357 107.18 171.568C107.18 171.163 107.062 170.843 106.828 170.608C106.614 170.352 106.316 170.224 105.932 170.224ZM118.238 182.864C117.129 182.864 116.275 182.608 115.678 182.096C115.102 181.584 114.814 181.008 114.814 180.368C114.814 179.813 115.017 179.333 115.422 178.928C115.827 178.523 116.425 178.32 117.214 178.32C117.491 178.32 117.811 178.352 118.174 178.416C118.558 178.459 118.846 178.491 119.038 178.512C119.017 177.957 118.889 177.435 118.654 176.944C118.441 176.453 118.163 175.984 117.822 175.536C117.481 175.067 117.161 174.661 116.862 174.32C116.201 175.579 115.539 176.624 114.878 177.456C114.238 178.288 113.534 179.077 112.766 179.824C112.382 180.208 111.977 180.4 111.55 180.4C111.209 180.4 110.931 180.283 110.718 180.048C110.505 179.792 110.398 179.483 110.398 179.12C110.398 178.693 110.547 178.299 110.846 177.936L111.262 177.424C112.435 175.973 113.321 174.779 113.918 173.84C114.302 173.221 114.686 172.485 115.07 171.632C115.475 170.779 115.998 169.616 116.638 168.144C117.043 167.205 117.886 166.736 119.166 166.736C119.763 166.736 120.179 166.789 120.414 166.896C120.649 167.003 120.766 167.173 120.766 167.408C120.766 167.536 120.723 167.739 120.638 168.016C120.553 168.293 120.435 168.571 120.286 168.848C119.902 169.616 119.71 170.267 119.71 170.8C119.71 171.12 119.817 171.472 120.03 171.856C120.265 172.24 120.617 172.72 121.086 173.296C121.769 174.192 122.281 174.96 122.622 175.6C122.985 176.219 123.166 176.901 123.166 177.648C123.166 178.544 122.953 179.397 122.526 180.208C122.121 180.997 121.545 181.637 120.798 182.128C120.051 182.619 119.198 182.864 118.238 182.864Z"
          fill="black"/>
    <circle cx="75" cy="75" r="74.5" stroke="black"/>
    <path d="M82.923 38.264C88.875 38.264 93.131 39.224 95.691 41.144C98.251 43.064 99.531 45.4 99.531 48.152C99.531 50.84 98.603 53.368 96.747 55.736C94.955 58.04 92.427 59.192 89.163 59.192C85.899 59.192 84.267 57.816 84.267 55.064C84.267 54.808 84.331 54.296 84.459 53.528C86.187 53.528 87.691 52.856 88.971 51.512C90.251 50.168 90.891 48.696 90.891 47.096C90.891 45.496 90.123 44.184 88.587 43.16C87.051 42.136 85.195 41.624 83.019 41.624C79.307 41.624 76.235 42.744 73.803 44.984C71.371 47.224 70.155 49.848 70.155 52.856C70.155 54.456 70.731 56.216 71.883 58.136C73.035 60.056 74.123 61.592 75.147 62.744C76.235 63.832 77.963 65.496 80.331 67.736C82.763 69.912 84.203 71.224 84.651 71.672C89.515 76.536 91.947 81.848 91.947 87.608C91.947 93.304 89.355 98.296 84.171 102.584C78.987 106.808 72.779 108.92 65.547 108.92C59.659 108.92 54.891 107.96 51.243 106.04C47.659 104.12 45.867 101.112 45.867 97.016C45.867 94.776 46.603 92.728 48.075 90.872C49.547 89.016 51.627 88.088 54.315 88.088C57.067 88.088 58.923 89.048 59.883 90.968C57.643 92.76 56.523 94.936 56.523 97.496C56.523 99.992 57.355 101.944 59.019 103.352C60.747 104.696 62.987 105.368 65.739 105.368C69.579 105.368 72.939 103.992 75.819 101.24C78.763 98.488 80.235 95.032 80.235 90.872C80.235 86.648 77.483 81.624 71.979 75.8C71.915 75.672 70.795 74.488 68.619 72.248C66.443 69.944 64.619 67.608 63.147 65.24C61.739 62.872 61.035 60.056 61.035 56.792C61.035 51.224 63.211 46.744 67.563 43.352C71.915 39.96 77.035 38.264 82.923 38.264Z"
          fill="black"/>
</svg>
