<svg width="205" height="264" viewBox="0 0 205 264" fill="none" xmlns="http://www.w3.org/2000/svg">
    <circle cx="99.8626" cy="68.2388" r="68.2388" fill="url(#paint0_linear)"/>
    <path d="M139.351 49.3735C139.258 49.8107 139.055 50.1542 138.742 50.404C138.43 50.6538 138.087 50.7787 137.712 50.7787C137.15 50.7787 136.697 50.6069 136.354 50.2635C136.01 49.8887 135.839 49.4672 135.839 48.9988C135.839 48.5304 135.885 48.0777 135.979 47.6405C136.073 47.1721 136.12 46.7194 136.12 46.2822C136.12 44.0028 135.417 41.9575 134.012 40.1464C132.607 38.3354 130.608 36.8209 128.017 35.6031C125.456 34.3541 122.334 33.4018 118.649 32.746C114.964 32.0903 110.858 31.7624 106.331 31.7624C102.865 31.7624 99.3673 31.9966 95.8388 32.465C92.3416 32.9022 88.9693 33.5579 85.7218 34.4322C82.5056 35.2753 79.4924 36.3526 76.6821 37.664C73.8718 38.9443 71.4206 40.4431 69.3285 42.1605C67.2676 43.8466 65.6439 45.7358 64.4574 47.8279C63.2708 49.8887 62.6775 52.1526 62.6775 54.6194C62.6775 56.5241 63.0834 58.2103 63.8953 59.6779C64.7384 61.1143 65.8781 62.3789 67.3145 63.4718C68.7508 64.5334 70.437 65.4546 72.373 66.2352C74.3402 66.9846 76.4635 67.6248 78.743 68.1556C81.0224 68.6552 83.3955 69.0767 85.8623 69.4202C88.3291 69.7325 90.8116 69.9979 93.3096 70.2165L100.523 70.8254C104.114 71.1376 107.33 71.4655 110.171 71.8089C113.013 72.1524 115.511 72.5896 117.665 73.1204C121.256 74.0259 123.91 75.3218 125.628 77.008C127.345 78.6941 128.204 80.9424 128.204 83.7526C128.204 86.4693 127.455 88.858 125.956 90.9189C124.457 92.9797 122.412 94.7127 119.82 96.1179C117.228 97.523 114.199 98.5847 110.733 99.3029C107.267 100.021 103.551 100.38 99.5859 100.38C95.2768 100.38 91.4829 100.084 88.2042 99.4902C84.9568 98.9282 82.2246 98.3037 80.0076 97.6167C77.8218 96.8985 76.1512 96.2428 74.9959 95.6495C73.8406 95.0562 73.2161 94.7284 73.1224 94.6659C72.5603 94.3537 72.2793 93.8541 72.2793 93.1671C72.2793 92.6363 72.4667 92.2147 72.8414 91.9025C73.2161 91.559 73.622 91.3872 74.0592 91.3872C74.4026 91.3872 74.7149 91.4809 74.9959 91.6683C75.0271 91.6683 75.558 91.9493 76.5884 92.5114C77.6501 93.0422 79.2113 93.6355 81.2722 94.2912C83.3643 94.9469 85.9404 95.5402 89.0005 96.0711C92.0606 96.6019 95.6203 96.8673 99.6796 96.8673C103.708 96.8673 107.267 96.5394 110.359 95.8837C113.45 95.228 116.042 94.3224 118.134 93.1671C120.257 91.9805 121.85 90.6066 122.911 89.0453C124.004 87.4529 124.551 85.7355 124.551 83.8932C124.551 82.8003 124.348 81.8635 123.942 81.0829C123.567 80.271 123.036 79.5841 122.349 79.022C121.662 78.4287 120.835 77.9291 119.867 77.5232C118.93 77.1173 117.9 76.7738 116.775 76.4928C115.589 76.1805 114.309 75.9151 112.935 75.6965C111.592 75.4779 110.203 75.2906 108.766 75.1344C107.33 74.9783 105.878 74.8378 104.41 74.7129C102.974 74.588 101.553 74.4631 100.148 74.3382L92.9349 73.7293C87.2519 73.2609 82.287 72.5427 78.0404 71.5748C73.825 70.5755 70.3121 69.3109 67.5018 67.7809C64.6915 66.2196 62.5838 64.3617 61.1787 62.2072C59.7736 60.0526 59.071 57.539 59.071 54.6662C59.071 51.731 59.7267 49.0457 61.0382 46.6101C62.3809 44.1433 64.1919 41.9263 66.4714 39.9591C68.7821 37.9919 71.4674 36.2901 74.5275 34.8537C77.6188 33.3861 80.9131 32.1684 84.4104 31.2004C87.9076 30.2324 91.5297 29.5142 95.2768 29.0458C99.0238 28.5462 102.708 28.2964 106.331 28.2964C110.858 28.2964 114.793 28.5774 118.134 29.1395C121.506 29.6703 124.379 30.3729 126.752 31.2472C129.156 32.0903 131.123 33.0583 132.654 34.1512C134.184 35.2441 135.417 36.3213 136.354 37.383C138.571 39.9747 139.679 42.9255 139.679 46.2354C139.679 47.3283 139.57 48.3743 139.351 49.3735Z"
          fill="white"/>
    <path d="M69.8914 181.775C69.8145 182.134 69.6479 182.416 69.3915 182.621C69.1352 182.826 68.8532 182.929 68.5455 182.929C68.0841 182.929 67.7124 182.788 67.4304 182.506C67.1484 182.198 67.0074 181.852 67.0074 181.467C67.0074 181.083 67.0459 180.711 67.1228 180.352C67.1997 179.968 67.2381 179.596 67.2381 179.237C67.2381 177.366 66.6613 175.687 65.5078 174.2C64.3542 172.713 62.7135 171.47 60.5858 170.47C58.4837 169.445 55.9202 168.663 52.8952 168.124C49.8703 167.586 46.4992 167.317 42.7821 167.317C39.9366 167.317 37.0654 167.509 34.1687 167.894C31.2975 168.253 28.5289 168.791 25.8628 169.509C23.2224 170.201 20.7486 171.085 18.4414 172.162C16.1343 173.213 14.1219 174.443 12.4043 175.853C10.7124 177.238 9.37937 178.789 8.40523 180.506C7.43109 182.198 6.94402 184.057 6.94402 186.082C6.94402 187.646 7.27728 189.03 7.9438 190.235C8.63595 191.414 9.57164 192.452 10.7509 193.349C11.9301 194.221 13.3144 194.977 14.9038 195.618C16.5188 196.233 18.262 196.759 20.1334 197.195C22.0047 197.605 23.953 197.951 25.9782 198.233C28.0034 198.489 30.0414 198.707 32.0922 198.887L38.014 199.387C40.962 199.643 43.6024 199.912 45.9352 200.194C48.2681 200.476 50.3189 200.835 52.0877 201.271C55.0358 202.014 57.2148 203.078 58.6247 204.462C60.0346 205.847 60.7396 207.692 60.7396 210C60.7396 212.23 60.1244 214.191 58.8939 215.883C57.6634 217.575 55.9843 218.997 53.8565 220.151C51.7288 221.305 49.2422 222.176 46.3967 222.766C43.5512 223.355 40.5006 223.65 37.2449 223.65C33.7072 223.65 30.5925 223.407 27.9008 222.92C25.2348 222.458 22.9917 221.946 21.1716 221.382C19.3771 220.792 18.0056 220.254 17.0571 219.767C16.1086 219.279 15.5959 219.01 15.519 218.959C15.0576 218.703 14.8269 218.293 14.8269 217.729C14.8269 217.293 14.9807 216.947 15.2883 216.69C15.5959 216.408 15.9292 216.267 16.2881 216.267C16.5701 216.267 16.8264 216.344 17.0571 216.498C17.0828 216.498 17.5186 216.729 18.3645 217.19C19.2361 217.626 20.5179 218.113 22.2098 218.651C23.9274 219.19 26.0423 219.677 28.5545 220.113C31.0668 220.548 33.9892 220.766 37.3218 220.766C40.6287 220.766 43.5512 220.497 46.0891 219.959C48.6269 219.42 50.7547 218.677 52.4722 217.729C54.2154 216.754 55.5228 215.626 56.3944 214.345C57.2917 213.037 57.7403 211.627 57.7403 210.115C57.7403 209.218 57.5737 208.449 57.2404 207.808C56.9328 207.141 56.497 206.577 55.933 206.116C55.369 205.629 54.6897 205.219 53.895 204.885C53.1259 204.552 52.28 204.27 51.3571 204.039C50.383 203.783 49.3319 203.565 48.204 203.386C47.1017 203.206 45.9609 203.052 44.7817 202.924C43.6024 202.796 42.4104 202.681 41.2055 202.578C40.0263 202.476 38.8599 202.373 37.7063 202.27L31.7846 201.771C27.119 201.386 23.043 200.796 19.5566 200.002C16.0958 199.181 13.2118 198.143 10.9047 196.887C8.5975 195.605 6.86712 194.08 5.71353 192.311C4.55994 190.542 3.98315 188.479 3.98315 186.12C3.98315 183.711 4.52149 181.506 5.59817 179.506C6.70049 177.481 8.18733 175.661 10.0587 174.046C11.9557 172.431 14.1603 171.034 16.6726 169.855C19.2105 168.65 21.915 167.65 24.7862 166.855C27.6573 166.061 30.631 165.471 33.7072 165.087C36.7835 164.676 39.8084 164.471 42.7821 164.471C46.4992 164.471 49.7293 164.702 52.4722 165.163C55.2408 165.599 57.5993 166.176 59.5476 166.894C61.5215 167.586 63.1365 168.381 64.3926 169.278C65.6488 170.175 66.6613 171.06 67.4304 171.931C69.2505 174.059 70.1606 176.481 70.1606 179.199C70.1606 180.096 70.0708 180.955 69.8914 181.775ZM72.5446 191.965C72.5446 192.939 72.1986 193.772 71.5064 194.465C70.8399 195.131 70.0196 195.464 69.0454 195.464C68.0713 195.464 67.2381 195.131 66.546 194.465C65.8795 193.772 65.5462 192.939 65.5462 191.965C65.5462 191.478 65.6359 191.029 65.8154 190.619C65.9948 190.183 66.2384 189.812 66.546 189.504C66.8793 189.171 67.251 188.915 67.6611 188.735C68.0969 188.556 68.5584 188.466 69.0454 188.466C69.5325 188.466 69.9811 188.556 70.3913 188.735C70.8271 188.915 71.1988 189.171 71.5064 189.504C71.8397 189.812 72.096 190.183 72.2755 190.619C72.4549 191.029 72.5446 191.478 72.5446 191.965ZM66.3153 214.499C66.3153 210.807 66.546 207.128 67.0074 203.463C67.0587 203.104 67.2125 202.796 67.4689 202.54C67.7508 202.258 68.1097 202.117 68.5455 202.117C68.9301 202.117 69.2505 202.27 69.5069 202.578C69.7632 202.86 69.8914 203.193 69.8914 203.578C69.8914 203.732 69.8529 204.193 69.776 204.962C69.7248 205.731 69.6479 206.654 69.5453 207.731C69.4684 208.782 69.3915 209.91 69.3146 211.115C69.2633 212.294 69.2377 213.383 69.2377 214.383C69.2377 215.742 69.3659 216.844 69.6222 217.69C69.9042 218.51 70.2503 219.151 70.6605 219.613C71.0963 220.074 71.5449 220.382 72.0063 220.536C72.4934 220.689 72.9548 220.766 73.3906 220.766C74.1084 220.766 74.8518 220.51 75.6209 219.997C76.3899 219.485 77.1718 218.767 77.9665 217.844C78.7868 216.921 79.6072 215.819 80.4275 214.537C81.2478 213.23 82.0553 211.781 82.85 210.192C82.9782 209.935 83.1576 209.743 83.3884 209.615C83.6191 209.461 83.8754 209.384 84.1574 209.384C84.5676 209.384 84.9008 209.538 85.1572 209.846C85.4392 210.153 85.5802 210.487 85.5802 210.845C85.5802 211.102 85.5289 211.32 85.4264 211.499C85.1187 212.089 84.7342 212.807 84.2728 213.653C83.8113 214.499 83.2858 215.37 82.6962 216.267C82.1066 217.165 81.4529 218.062 80.7351 218.959C80.043 219.831 79.2995 220.625 78.5048 221.343C77.7101 222.035 76.877 222.599 76.0054 223.035C75.1338 223.471 74.2494 223.689 73.3522 223.689C72.1986 223.689 71.186 223.445 70.3144 222.958C69.4428 222.471 68.6994 221.817 68.0841 220.997C67.4945 220.177 67.0459 219.215 66.7383 218.113C66.4563 216.985 66.3153 215.78 66.3153 214.499ZM70.3913 191.965C70.3913 191.606 70.2503 191.299 69.9683 191.042C69.7119 190.76 69.4043 190.619 69.0454 190.619C68.6865 190.619 68.3789 190.76 68.1226 191.042C67.8662 191.299 67.738 191.606 67.738 191.965C67.738 192.324 67.8662 192.632 68.1226 192.888C68.3789 193.144 68.6865 193.273 69.0454 193.273C69.4043 193.273 69.7119 193.144 69.9683 192.888C70.2503 192.632 70.3913 192.324 70.3913 191.965ZM91.3481 218.69C91.7583 217.844 92.2325 216.921 92.7709 215.921C93.3092 214.896 93.886 213.87 94.5012 212.845C95.1165 211.794 95.7574 210.756 96.4239 209.73C97.116 208.705 97.8338 207.731 98.5772 206.808C99.3207 205.911 100.064 205.27 100.808 204.885C101.577 204.475 102.294 204.27 102.961 204.27C104.294 204.27 105.281 204.757 105.922 205.731C106.563 206.705 106.883 207.91 106.883 209.346C106.883 209.679 106.857 210.089 106.806 210.576C106.781 211.038 106.742 211.538 106.691 212.076C106.665 212.614 106.627 213.165 106.575 213.729C106.55 214.268 106.537 214.78 106.537 215.268C106.537 215.883 106.563 216.472 106.614 217.036C106.691 217.6 106.819 218.1 106.998 218.536C107.178 218.946 107.434 219.279 107.767 219.536C108.101 219.767 108.537 219.882 109.075 219.882C110.049 219.882 110.998 219.51 111.92 218.767C112.843 217.998 113.689 217.1 114.458 216.075C115.253 215.024 115.932 213.96 116.496 212.883C117.086 211.807 117.522 210.935 117.804 210.269C117.932 209.987 118.111 209.769 118.342 209.615C118.598 209.461 118.868 209.384 119.15 209.384C119.585 209.384 119.931 209.551 120.188 209.884C120.47 210.192 120.611 210.525 120.611 210.884C120.611 211.063 120.572 211.243 120.495 211.422C120.393 211.627 120.188 212.05 119.88 212.691C119.573 213.332 119.162 214.076 118.65 214.921C118.163 215.742 117.586 216.626 116.919 217.575C116.253 218.498 115.509 219.344 114.689 220.113C113.894 220.882 113.023 221.523 112.074 222.035C111.151 222.548 110.177 222.804 109.152 222.804C107.998 222.804 107.063 222.586 106.345 222.151C105.627 221.689 105.063 221.1 104.653 220.382C104.243 219.638 103.961 218.831 103.807 217.959C103.679 217.062 103.615 216.165 103.615 215.268C103.615 214.883 103.627 214.447 103.653 213.96C103.704 213.473 103.756 212.96 103.807 212.422C103.884 211.884 103.935 211.345 103.961 210.807C104.012 210.269 104.038 209.756 104.038 209.269C104.038 208.449 103.909 207.897 103.653 207.615C103.397 207.308 103.166 207.154 102.961 207.154C102.551 207.154 102.076 207.398 101.538 207.885C101.025 208.346 100.474 208.961 99.8846 209.73C99.3207 210.499 98.7311 211.371 98.1158 212.345C97.5262 213.294 96.9622 214.242 96.4239 215.191C95.9112 216.139 95.4241 217.049 94.9627 217.921C94.5269 218.767 94.1808 219.472 93.9244 220.036C93.4117 221.112 92.899 221.83 92.3863 222.189C91.8736 222.574 91.3481 222.766 90.8098 222.766C90.0663 222.766 89.4639 222.548 89.0025 222.112C88.5667 221.651 88.3488 221.01 88.3488 220.19C88.3488 220.01 88.3744 219.664 88.4257 219.151C88.477 218.613 88.541 217.985 88.6179 217.267C88.6948 216.524 88.7718 215.729 88.8487 214.883C88.9256 214.037 89.0025 213.204 89.0794 212.384C89.1563 211.538 89.2204 210.756 89.2716 210.038C89.3229 209.32 89.3485 208.718 89.3485 208.231C89.3485 207.59 89.3229 206.975 89.2716 206.385C89.2204 205.795 89.1178 205.436 88.964 205.308C88.7333 205.385 88.3231 205.872 87.7335 206.769C87.1439 207.641 86.3877 209.192 85.4648 211.422C85.3366 211.704 85.1444 211.922 84.888 212.076C84.6317 212.23 84.3625 212.307 84.0805 212.307C83.6447 212.307 83.2986 212.166 83.0423 211.884C82.7859 211.576 82.6577 211.23 82.6577 210.845C82.6577 210.666 82.6962 210.474 82.7731 210.269C83.9267 207.526 85.0034 205.513 86.0031 204.232C87.0286 202.924 88.0412 202.27 89.0409 202.27C89.6305 202.27 90.1304 202.424 90.5406 202.732C90.9508 203.014 91.2712 203.398 91.5019 203.886C91.7583 204.373 91.9377 204.911 92.0403 205.501C92.1684 206.09 92.2325 206.693 92.2325 207.308C92.2325 207.769 92.1941 208.487 92.1172 209.461C92.0659 210.435 91.989 211.486 91.8864 212.614C91.7839 213.717 91.6814 214.819 91.5788 215.921C91.5019 217.024 91.425 217.946 91.3481 218.69ZM131.801 225.919C136.62 219.638 139.965 214.422 141.837 210.269C141.965 209.987 142.132 209.782 142.337 209.653C142.567 209.5 142.824 209.423 143.106 209.423C143.541 209.423 143.9 209.577 144.182 209.884C144.464 210.166 144.605 210.499 144.605 210.884C144.605 211.063 144.567 211.243 144.49 211.422C143.362 213.986 141.76 216.844 139.683 219.997C137.607 223.15 134.979 226.714 131.801 230.687C131.801 232.302 131.813 233.917 131.839 235.532C131.865 237.147 131.877 238.916 131.877 240.839C131.877 242.761 131.826 244.658 131.724 246.53C131.647 248.427 131.493 250.221 131.262 251.913C131.031 253.631 130.711 255.207 130.301 256.643C129.916 258.104 129.404 259.36 128.763 260.411C128.148 261.488 127.391 262.321 126.494 262.911C125.622 263.526 124.584 263.834 123.379 263.834C121.662 263.834 120.342 263.18 119.419 261.872C118.496 260.565 118.034 258.707 118.034 256.297C118.034 255.015 118.15 253.618 118.38 252.105C118.637 250.619 118.996 249.08 119.457 247.491C119.919 245.902 120.47 244.287 121.111 242.646C121.777 241.031 122.508 239.454 123.302 237.916C124.097 236.378 124.956 234.904 125.879 233.494C126.827 232.084 127.827 230.803 128.878 229.649C128.904 227.854 128.917 226.073 128.917 224.304C128.942 222.535 128.981 220.907 129.032 219.42C128.263 220.395 127.34 221.164 126.263 221.728C125.212 222.292 124.161 222.574 123.11 222.574C122.213 222.574 121.393 222.407 120.649 222.074C119.931 221.715 119.316 221.228 118.803 220.613C118.291 219.972 117.893 219.228 117.611 218.382C117.329 217.536 117.188 216.613 117.188 215.614C117.188 213.614 117.522 211.858 118.188 210.346C118.88 208.807 119.752 207.526 120.803 206.5C121.854 205.475 123.008 204.706 124.264 204.193C125.546 203.68 126.776 203.424 127.955 203.424C128.75 203.424 129.481 203.527 130.147 203.732C130.814 203.937 131.378 204.168 131.839 204.424C132.326 204.68 132.698 204.924 132.954 205.154C133.21 205.385 133.351 205.513 133.377 205.539C133.659 205.847 133.8 206.193 133.8 206.577C133.8 206.962 133.659 207.308 133.377 207.615C133.095 207.897 132.762 208.038 132.377 208.038C132.018 208.038 131.672 207.897 131.339 207.615C131.237 207.539 131.096 207.436 130.916 207.308C130.762 207.154 130.544 207 130.262 206.846C130.006 206.693 129.686 206.564 129.301 206.462C128.942 206.359 128.506 206.308 127.994 206.308C127.225 206.308 126.379 206.487 125.456 206.846C124.533 207.18 123.674 207.718 122.879 208.461C122.085 209.205 121.418 210.166 120.88 211.345C120.342 212.499 120.072 213.896 120.072 215.537C120.072 216.767 120.342 217.767 120.88 218.536C121.418 219.279 122.251 219.651 123.379 219.651C123.918 219.651 124.482 219.497 125.071 219.19C125.687 218.882 126.276 218.408 126.84 217.767C127.404 217.126 127.891 216.319 128.301 215.344C128.737 214.37 129.045 213.217 129.224 211.884C129.275 211.525 129.442 211.23 129.724 210.999C130.006 210.743 130.339 210.615 130.724 210.615C131.16 210.615 131.493 210.769 131.724 211.076C131.98 211.384 132.108 211.73 132.108 212.114C132.108 212.14 132.095 212.537 132.07 213.306C132.044 214.05 132.018 215.05 131.993 216.306C131.967 217.562 131.929 219.023 131.877 220.689C131.852 222.33 131.826 224.073 131.801 225.919ZM128.878 234.34C127.673 236.006 126.584 237.814 125.61 239.762C124.635 241.736 123.802 243.723 123.11 245.722C122.418 247.722 121.88 249.657 121.495 251.529C121.136 253.426 120.957 255.118 120.957 256.604C120.957 257.553 121.034 258.309 121.188 258.873C121.367 259.437 121.572 259.873 121.803 260.181C122.059 260.488 122.328 260.693 122.61 260.796C122.918 260.898 123.2 260.95 123.456 260.95C124.251 260.95 124.943 260.629 125.533 259.988C126.122 259.347 126.622 258.489 127.032 257.412C127.443 256.361 127.776 255.143 128.032 253.759C128.289 252.375 128.481 250.939 128.609 249.452C128.737 247.991 128.827 246.53 128.878 245.069C128.929 243.607 128.955 242.261 128.955 241.031C128.955 239.929 128.955 238.826 128.955 237.724C128.955 236.622 128.929 235.494 128.878 234.34ZM163.755 211.499C163.473 212.089 163.114 212.794 162.678 213.614C162.268 214.409 161.794 215.242 161.255 216.114C160.717 216.985 160.115 217.857 159.448 218.728C158.782 219.574 158.051 220.343 157.256 221.036C156.487 221.702 155.654 222.24 154.757 222.651C153.885 223.086 152.95 223.304 151.95 223.304C150.412 223.304 149.092 222.83 147.989 221.881C146.887 220.933 145.951 219.69 145.182 218.152C144.413 216.613 143.785 214.87 143.298 212.922C142.837 210.948 142.478 208.948 142.221 206.923C141.965 204.872 141.785 202.886 141.683 200.963C141.606 199.04 141.568 197.336 141.568 195.849C141.568 193.696 141.632 191.465 141.76 189.158C141.914 186.851 142.144 184.595 142.452 182.39C142.76 180.186 143.144 178.096 143.606 176.123C144.093 174.149 144.657 172.418 145.297 170.931C145.964 169.445 146.72 168.265 147.566 167.394C148.412 166.522 149.373 166.086 150.45 166.086C151.296 166.086 152.052 166.291 152.719 166.702C153.411 167.086 153.988 167.727 154.449 168.624C154.911 169.521 155.27 170.688 155.526 172.123C155.782 173.559 155.91 175.315 155.91 177.391C155.91 179.955 155.641 182.608 155.103 185.351C154.565 188.069 153.834 190.812 152.911 193.58C151.988 196.349 150.899 199.117 149.643 201.886C148.387 204.629 147.041 207.308 145.605 209.923C146.246 213.178 147.105 215.742 148.181 217.613C149.258 219.459 150.553 220.382 152.065 220.382C153.091 220.382 154.078 219.984 155.026 219.19C155.975 218.369 156.846 217.408 157.641 216.306C158.436 215.203 159.128 214.088 159.717 212.96C160.333 211.807 160.807 210.884 161.14 210.192C161.268 209.935 161.448 209.743 161.678 209.615C161.909 209.461 162.165 209.384 162.447 209.384C162.883 209.384 163.229 209.538 163.486 209.846C163.768 210.153 163.909 210.499 163.909 210.884C163.909 211.038 163.857 211.243 163.755 211.499ZM144.49 196.041C144.49 197.682 144.528 199.258 144.605 200.771C144.682 202.283 144.785 203.732 144.913 205.116C145.99 203.04 147.015 200.835 147.989 198.502C148.963 196.144 149.822 193.772 150.566 191.388C151.309 188.979 151.899 186.595 152.334 184.236C152.796 181.852 153.027 179.583 153.027 177.43C153.027 174.405 152.783 172.239 152.296 170.931C151.809 169.624 151.155 168.97 150.335 168.97C149.796 168.97 149.271 169.342 148.758 170.085C148.271 170.829 147.81 171.841 147.374 173.123C146.938 174.405 146.541 175.917 146.182 177.661C145.823 179.404 145.515 181.275 145.259 183.275C145.028 185.274 144.836 187.364 144.682 189.543C144.554 191.722 144.49 193.888 144.49 196.041ZM165.793 217.921C166.331 218.664 167.023 219.267 167.869 219.728C168.715 220.164 169.754 220.382 170.984 220.382C172.24 220.382 173.381 220.087 174.406 219.497C175.432 218.882 176.367 218.087 177.213 217.113C178.059 216.139 178.816 215.05 179.482 213.845C180.149 212.64 180.751 211.435 181.289 210.23C181.418 209.948 181.597 209.743 181.828 209.615C182.058 209.461 182.315 209.384 182.597 209.384C183.033 209.384 183.379 209.538 183.635 209.846C183.917 210.153 184.058 210.487 184.058 210.845C184.058 210.974 184.045 211.089 184.02 211.192C183.994 211.268 183.955 211.358 183.904 211.461C182.135 215.357 180.2 218.293 178.098 220.266C176.021 222.24 173.663 223.253 171.022 223.304C169.331 223.304 167.869 222.971 166.639 222.304C165.408 221.664 164.396 220.83 163.601 219.805C162.806 218.754 162.217 217.575 161.832 216.267C161.448 214.96 161.255 213.653 161.255 212.345C161.255 211.038 161.409 209.833 161.717 208.731C162.05 207.628 162.512 206.667 163.101 205.847C163.716 205.026 164.434 204.385 165.255 203.924C166.101 203.463 167.023 203.232 168.023 203.232C168.613 203.232 169.19 203.36 169.754 203.616C170.343 203.847 170.869 204.193 171.33 204.655C171.792 205.09 172.163 205.629 172.445 206.27C172.727 206.91 172.868 207.641 172.868 208.461C172.868 209.512 172.689 210.499 172.33 211.422C171.971 212.345 171.471 213.204 170.83 213.999C170.215 214.793 169.472 215.524 168.6 216.19C167.728 216.857 166.793 217.434 165.793 217.921ZM164.639 215.421C165.434 215.088 166.152 214.665 166.793 214.152C167.459 213.64 168.023 213.076 168.485 212.461C168.946 211.845 169.305 211.204 169.561 210.538C169.818 209.846 169.946 209.154 169.946 208.461C169.946 207.692 169.754 207.116 169.369 206.731C168.984 206.321 168.536 206.116 168.023 206.116C167.331 206.116 166.741 206.308 166.254 206.693C165.767 207.077 165.37 207.577 165.062 208.192C164.755 208.807 164.524 209.5 164.37 210.269C164.242 211.012 164.178 211.756 164.178 212.499C164.178 212.96 164.216 213.447 164.293 213.96C164.396 214.473 164.511 214.96 164.639 215.421ZM185.596 207.923C185.442 208.333 185.25 208.795 185.019 209.307C184.814 209.82 184.571 210.358 184.289 210.922C184.058 211.358 183.814 211.704 183.558 211.961C183.327 212.191 183.02 212.307 182.635 212.307C182.199 212.307 181.853 212.179 181.597 211.922C181.341 211.64 181.212 211.32 181.212 210.961C181.212 210.833 181.225 210.73 181.251 210.653C181.277 210.551 181.341 210.397 181.443 210.192C182.11 208.91 182.597 207.795 182.904 206.846C183.238 205.872 183.507 204.86 183.712 203.809C183.532 203.219 183.404 202.719 183.327 202.309C183.25 201.899 183.212 201.476 183.212 201.04C183.212 200.194 183.391 199.515 183.75 199.002C184.109 198.464 184.609 198.194 185.25 198.194C185.84 198.194 186.301 198.451 186.634 198.964C186.993 199.476 187.173 200.104 187.173 200.848C187.173 201.258 187.134 201.668 187.057 202.078C186.98 202.488 186.878 203.001 186.75 203.616C187.339 205.078 187.929 206.372 188.519 207.5C189.108 208.628 189.634 209.666 190.095 210.615C190.557 211.538 190.928 212.409 191.21 213.23C191.518 214.05 191.672 214.87 191.672 215.691C191.672 216.767 191.454 217.793 191.018 218.767C190.582 219.741 189.864 220.561 188.865 221.228C188.993 221.253 189.121 221.266 189.249 221.266C189.377 221.266 189.505 221.266 189.634 221.266C191.095 221.266 192.441 220.933 193.671 220.266C194.902 219.6 196.004 218.741 196.978 217.69C197.978 216.613 198.862 215.434 199.631 214.152C200.4 212.845 201.067 211.55 201.631 210.269C201.887 209.679 202.246 209.384 202.708 209.384C203.143 209.384 203.477 209.538 203.707 209.846C203.964 210.153 204.092 210.487 204.092 210.845C204.092 211.051 204.054 211.243 203.977 211.422C203.695 212.114 203.323 212.909 202.861 213.806C202.426 214.678 201.887 215.588 201.246 216.537C200.631 217.459 199.913 218.369 199.093 219.267C198.273 220.164 197.35 220.971 196.324 221.689C195.325 222.381 194.222 222.933 193.018 223.343C191.813 223.778 190.492 223.996 189.057 223.996C187.339 223.996 185.737 223.689 184.25 223.074C182.789 222.484 181.597 221.497 180.674 220.113C180.52 219.882 180.443 219.638 180.443 219.382C180.443 218.997 180.584 218.664 180.866 218.382C181.174 218.075 181.52 217.921 181.905 217.921C182.315 217.921 182.661 218.062 182.943 218.344C182.969 218.395 183.058 218.485 183.212 218.613C183.366 218.716 183.545 218.844 183.75 218.997C183.981 219.126 184.237 219.241 184.519 219.344C184.827 219.446 185.135 219.497 185.442 219.497C186.058 219.497 186.57 219.369 186.98 219.113C187.416 218.857 187.762 218.549 188.019 218.19C188.275 217.805 188.454 217.408 188.557 216.998C188.685 216.562 188.749 216.19 188.749 215.883C188.749 215.242 188.647 214.601 188.442 213.96C188.237 213.319 187.967 212.678 187.634 212.038C187.326 211.397 186.98 210.743 186.596 210.076C186.237 209.384 185.904 208.666 185.596 207.923Z"
          fill="black"/>
    <defs>
        <linearGradient id="paint0_linear" x1="31.6238" y1="68.2388" x2="168.101" y2="68.2388"
                        gradientUnits="userSpaceOnUse">
            <stop stop-color="#00B2FF"/>
            <stop offset="1" stop-color="#FA00FF"/>
        </linearGradient>
    </defs>
</svg>
