<svg width="150" height="150" viewBox="0 0 150 150" fill="none" xmlns="http://www.w3.org/2000/svg">
    <circle cx="75" cy="75" r="74.5" stroke="white"/>
    <path d="M82.923 38.264C88.875 38.264 93.131 39.224 95.691 41.144C98.251 43.064 99.531 45.4 99.531 48.152C99.531 50.84 98.603 53.368 96.747 55.736C94.955 58.04 92.427 59.192 89.163 59.192C85.899 59.192 84.267 57.816 84.267 55.064C84.267 54.808 84.331 54.296 84.459 53.528C86.187 53.528 87.691 52.856 88.971 51.512C90.251 50.168 90.891 48.696 90.891 47.096C90.891 45.496 90.123 44.184 88.587 43.16C87.051 42.136 85.195 41.624 83.019 41.624C79.307 41.624 76.235 42.744 73.803 44.984C71.371 47.224 70.155 49.848 70.155 52.856C70.155 54.456 70.731 56.216 71.883 58.136C73.035 60.056 74.123 61.592 75.147 62.744C76.235 63.832 77.963 65.496 80.331 67.736C82.763 69.912 84.203 71.224 84.651 71.672C89.515 76.536 91.947 81.848 91.947 87.608C91.947 93.304 89.355 98.296 84.171 102.584C78.987 106.808 72.779 108.92 65.547 108.92C59.659 108.92 54.891 107.96 51.243 106.04C47.659 104.12 45.867 101.112 45.867 97.016C45.867 94.776 46.603 92.728 48.075 90.872C49.547 89.016 51.627 88.088 54.315 88.088C57.067 88.088 58.923 89.048 59.883 90.968C57.643 92.76 56.523 94.936 56.523 97.496C56.523 99.992 57.355 101.944 59.019 103.352C60.747 104.696 62.987 105.368 65.739 105.368C69.579 105.368 72.939 103.992 75.819 101.24C78.763 98.488 80.235 95.032 80.235 90.872C80.235 86.648 77.483 81.624 71.979 75.8C71.915 75.672 70.795 74.488 68.619 72.248C66.443 69.944 64.619 67.608 63.147 65.24C61.739 62.872 61.035 60.056 61.035 56.792C61.035 51.224 63.211 46.744 67.563 43.352C71.915 39.96 77.035 38.264 82.923 38.264Z"
          fill="white"/>
</svg>
