<svg width="55" height="71" viewBox="0 0 55 71" fill="none" xmlns="http://www.w3.org/2000/svg">
    <path d="M37.423 0.263998C43.375 0.263998 47.631 1.224 50.191 3.144C52.751 5.064 54.031 7.4 54.031 10.152C54.031 12.84 53.103 15.368 51.247 17.736C49.455 20.04 46.927 21.192 43.663 21.192C40.399 21.192 38.767 19.816 38.767 17.064C38.767 16.808 38.831 16.296 38.959 15.528C40.687 15.528 42.191 14.856 43.471 13.512C44.751 12.168 45.391 10.696 45.391 9.096C45.391 7.496 44.623 6.184 43.087 5.16C41.551 4.136 39.695 3.62399 37.519 3.62399C33.807 3.62399 30.735 4.744 28.303 6.984C25.871 9.224 24.655 11.848 24.655 14.856C24.655 16.456 25.231 18.216 26.383 20.136C27.535 22.056 28.623 23.592 29.647 24.744C30.735 25.832 32.463 27.496 34.831 29.736C37.263 31.912 38.703 33.224 39.151 33.672C44.015 38.536 46.447 43.848 46.447 49.608C46.447 55.304 43.855 60.296 38.671 64.584C33.487 68.808 27.279 70.92 20.047 70.92C14.159 70.92 9.391 69.96 5.743 68.04C2.159 66.12 0.367 63.112 0.367 59.016C0.367 56.776 1.103 54.728 2.575 52.872C4.047 51.016 6.127 50.088 8.815 50.088C11.567 50.088 13.423 51.048 14.383 52.968C12.143 54.76 11.023 56.936 11.023 59.496C11.023 61.992 11.855 63.944 13.519 65.352C15.247 66.696 17.487 67.368 20.239 67.368C24.079 67.368 27.439 65.992 30.319 63.24C33.263 60.488 34.735 57.032 34.735 52.872C34.735 48.648 31.983 43.624 26.479 37.8C26.415 37.672 25.295 36.488 23.119 34.248C20.943 31.944 19.119 29.608 17.647 27.24C16.239 24.872 15.535 22.056 15.535 18.792C15.535 13.224 17.711 8.744 22.063 5.352C26.415 1.96 31.535 0.263998 37.423 0.263998Z"
          fill="black"/>
</svg>
